<svg id="Layer_1" enable-background="new 0 0 150 150" height="64" viewBox="0 0 150 150" width="64" xmlns="http://www.w3.org/2000/svg"><g><path d="m60.682 49.358-26.12-37.536c24.659-15.748 56.217-15.748 80.876 0l-26.082 37.517-14.356 20.625z" fill="#fcd462"/><path d="m.044 72.112c.864-22.512 11.805-43.442 29.796-57l26.101 37.516 13.544 19.484z" fill="#64798a"/><path d="m55.961 97.342-26.12 37.516c-17.991-13.55-28.932-34.474-29.796-56.98h69.461z" fill="#44c4a1"/><path d="m89.356 100.631 26.082 37.536c-24.65 15.777-56.226 15.777-80.876 0l26.12-37.536 14.318-20.606z" fill="#e1e6e9"/><path d="m149.956 77.878c-.865 22.502-11.798 43.423-29.777 56.981l-26.12-37.536-13.545-19.445z" fill="#27a2db"/><path d="m94.058 52.647 26.12-37.536c17.98 13.566 28.912 34.493 29.777 57h-69.421z" fill="#e56353"/><path d="m69.505 77.878-13.544 19.464c-5.805-4.912-9.464-11.895-10.197-19.464z" fill="#3ea69b"/><path d="m69.505 72.112h-23.74c.737-7.569 4.386-14.555 10.177-19.484z" fill="#334d5c"/><path d="m75 80.025 14.337 20.606c-8.91 4.979-19.765 4.979-28.674 0z" fill="#d5d6db"/><path d="m75 69.964-14.318-20.606c8.907-4.99 19.768-4.99 28.674 0z" fill="#f7be56"/><path d="m80.534 77.878h23.702c-.732 7.559-4.383 14.535-10.177 19.445z" fill="#2d93ba"/><path d="m80.534 72.112 13.544-19.464c5.811 4.904 9.466 11.894 10.177 19.464z" fill="#d15241"/></g></svg>